<svg width="20" height="20" viewBox="0 0 20 20" fill="none" xmlns="http://www.w3.org/2000/svg"><path d="M2.18992 18.1063L2.92605 18.2499L2.18992 18.1063ZM3.23061 18.9437L3.44431 19.6627H3.44431L3.23061 18.9437ZM6.42414 18.2616L6.7224 17.5735L6.42414 18.2616ZM2.48483 14.9538L1.85902 15.3672L2.48483 14.9538ZM2.65096 15.7423L1.91482 15.5987L2.65096 15.7423ZM18.25 10C18.25 14.5563 14.5563 18.25 10 18.25V19.75C15.3848 19.75 19.75 15.3848 19.75 10H18.25ZM10 1.75C14.5563 1.75 18.25 5.44365 18.25 10H19.75C19.75 4.61522 15.3848 0.25 10 0.25V1.75ZM1.75 10C1.75 5.44365 5.44365 1.75 10 1.75V0.25C4.61522 0.25 0.25 4.61522 0.25 10H1.75ZM3.11064 14.5404C2.25066 13.2384 1.75 11.6788 1.75 10H0.25C0.25 11.9817 0.842019 13.8274 1.85902 15.3672L3.11064 14.5404ZM2.92605 18.2499L3.38709 15.8858L1.91482 15.5987L1.45378 17.9628L2.92605 18.2499ZM3.01691 18.2248C3.00024 18.2298 2.98521 18.23 2.97037 18.2268C2.95382 18.2233 2.93867 18.2156 2.92786 18.2069C2.91689 18.1981 2.91786 18.1944 2.92156 18.2034C2.92356 18.2083 2.92583 18.2158 2.92684 18.2253C2.92788 18.2351 2.92724 18.2437 2.92605 18.2499L1.45378 17.9628C1.33898 18.5514 1.60645 19.0689 1.98749 19.3756C2.36722 19.6811 2.90661 19.8225 3.44431 19.6627L3.01691 18.2248ZM5.48482 17.4912L3.0169 18.2248L3.44431 19.6627L5.91223 18.929L5.48482 17.4912ZM10 18.25C8.83385 18.25 7.72607 18.0085 6.7224 17.5735L6.12589 18.9498C7.31432 19.4649 8.62484 19.75 10 19.75V18.25ZM5.91223 18.929C5.96691 18.9128 6.04229 18.9135 6.12589 18.9498L6.7224 17.5735C6.34727 17.4109 5.90936 17.365 5.48482 17.4912L5.91223 18.929ZM1.85902 15.3672C1.91523 15.4523 1.92699 15.5363 1.91482 15.5987L3.38709 15.8858C3.4817 15.4007 3.36185 14.9208 3.11064 14.5404L1.85902 15.3672Z" fill="currentColor"></path><path fill-rule="evenodd" clip-rule="evenodd" d="M14.7953 7.09352C15.1828 6.79587 15.6857 7.26712 15.4308 7.68901L12.8778 11.9145C12.4565 12.612 11.5419 12.789 10.9012 12.2971L8.76413 10.6565C8.59213 10.5245 8.35597 10.5236 8.18304 10.6544L5.20221 12.9084C4.80908 13.2056 4.30781 12.7203 4.57528 12.3014L7.33905 7.97257C7.77372 7.29176 8.68207 7.1341 9.31136 7.63024L11.3798 9.26103C11.553 9.39763 11.7939 9.39917 11.9688 9.26481L14.7953 7.09352Z" fill="#FFFFFF"></path></svg>