<svg width="186" height="29" viewBox="0 0 186 29" fill="none" xmlns="http://www.w3.org/2000/svg"><path d="M105.206 19.5366C102.791 19.5366 100.825 17.5754 100.639 15.1046V14.3171C100.825 11.8308 102.807 9.86962 105.206 9.86962C107.745 9.86962 109.804 12.0316 109.804 14.7031C109.804 17.3747 107.745 19.5366 105.206 19.5366ZM106.011 5.79279C103.968 5.79279 102.095 6.54947 100.639 7.81576V6.30239H95.9023V28.5705H100.639V21.6059C102.095 22.8722 103.968 23.6289 106.011 23.6289C110.686 23.6289 114.479 19.6293 114.479 14.7031C114.479 9.77696 110.686 5.77734 106.011 5.77734" fill="#FFFFFF"></path><path d="M186 6.30387H182.408V0.945312H177.687V6.30387H175.488V10.1954H177.687V23.0899H182.408V10.1954H186V6.30387Z" fill="#FFFFFF"></path><path d="M150.302 14.7046C150.302 17.3762 148.243 19.5227 145.72 19.5227C143.197 19.5227 141.339 17.5769 141.153 15.0907V14.3031C141.339 11.8169 143.305 9.8711 145.72 9.8711C148.259 9.8711 150.302 12.0331 150.302 14.6892M154.993 14.6892C154.993 9.763 151.2 5.77883 146.525 5.77883C144.481 5.77883 142.624 6.53551 141.153 7.8018V0.945312H136.416V23.0899H141.153V21.592C142.608 22.8583 144.481 23.615 146.525 23.615C151.2 23.615 154.993 19.6308 154.993 14.7046" fill="#FFFFFF"></path><path d="M120.858 14.3171C120.812 11.8308 123.103 9.65342 125.626 9.65342C128.15 9.65342 129.156 11.522 129.156 11.522L120.874 14.873C120.874 14.873 120.874 14.6259 120.874 14.3171M122.221 18.3012L134.172 13.4523C133.707 8.9585 130.023 5.77734 125.456 5.77734C120.425 5.77734 116.354 9.76152 116.354 14.6877C116.354 19.6139 120.487 23.598 125.688 23.598C129.11 23.598 132.159 22.2391 133.522 20.6331L130.936 18.0233C125.843 21.6677 122.422 18.7027 122.205 18.2858" fill="#FFFFFF"></path><path d="M55.9172 6.30469V15.8018C55.9172 17.8711 54.2298 19.5544 52.1554 19.5544C50.081 19.5544 48.3936 17.8711 48.3936 15.8018V6.30469H43.6875V15.1687C43.6875 19.8323 47.4803 23.6158 52.1554 23.6158C56.8306 23.6158 60.6233 19.8323 60.6233 15.1687V6.30469H55.9172Z" fill="#FFFFFF"></path><path d="M84.2606 19.5366C81.7218 19.5366 79.6009 17.3747 79.6009 14.6877C79.6009 12.0007 81.7218 9.83873 84.2606 9.83873C86.7994 9.83873 88.9203 12.0007 88.9203 14.6877C88.9203 17.3747 86.7994 19.5366 84.2606 19.5366ZM84.2606 5.77734C79.1056 5.77734 74.9258 9.76152 74.9258 14.6877C74.9258 19.6139 79.1056 23.598 84.2606 23.598C89.4157 23.598 93.5954 19.6139 93.5954 14.6877C93.5954 9.76152 89.4157 5.77734 84.2606 5.77734Z" fill="#FFFFFF"></path><path d="M28.2218 14.3171C28.1754 11.8308 30.4665 9.65342 32.9899 9.65342C35.5132 9.65342 36.504 11.522 36.504 11.522L28.2373 14.873C28.2373 14.873 28.2373 14.6259 28.2373 14.3171M29.5841 18.3012L41.5507 13.4523C41.0708 8.9585 37.3864 5.77734 32.835 5.77734C27.8038 5.77734 23.7324 9.77696 23.7324 14.6877C23.7324 19.5984 27.8658 23.598 33.0673 23.598C36.4885 23.598 39.5382 22.2391 40.9005 20.6331L38.3152 18.0233C33.2221 21.6677 29.8008 18.7027 29.5841 18.2858" fill="#FFFFFF"></path><path d="M161.278 14.3171C161.232 11.8308 163.523 9.65342 166.046 9.65342C168.57 9.65342 169.576 11.522 169.576 11.522L161.294 14.873C161.294 14.873 161.294 14.6259 161.294 14.3171M162.641 18.3012L174.607 13.4523C174.143 8.9585 170.458 5.77734 165.892 5.77734C160.86 5.77734 156.789 9.76152 156.789 14.6877C156.789 19.6139 160.922 23.598 166.124 23.598C169.545 23.598 172.595 22.2391 173.957 20.6331L171.372 18.0233C166.279 21.6677 162.842 18.7027 162.641 18.2858" fill="#FFFFFF"></path><path d="M73.8745 5.96531C70.1591 5.31673 63.3477 6.52124 63.3477 13.7175V23.0911H68.0693V14.9374C68.0693 9.17736 73.89 10.1502 73.89 10.1502V5.96531H73.8745Z" fill="#FFFFFF"></path><path d="M0 14.6884C0 8.88203 4.70612 4.1875 10.5268 4.1875C16.3476 4.1875 21.0537 8.89748 21.0537 14.6884C21.0537 20.4794 16.3476 25.1894 10.5268 25.1894C4.70612 25.1894 0 20.4948 0 14.6884Z" fill="#F15A22"></path></svg>