<svg width="80" height="12" viewBox="0 0 80 12" fill="none" xmlns="http://www.w3.org/2000/svg"><path d="M7.73467 4.49099C7.57986 4.0586 7.34765 3.68798 7.05352 3.37913C6.77487 3.07028 6.41881 2.83864 6.01631 2.66877C5.59834 2.49891 5.1494 2.40625 4.65402 2.40625C4.40633 2.40625 4.1896 2.43714 3.97287 2.51435C3.75614 2.57612 3.57037 2.65333 3.38461 2.76143C3.19884 2.85408 3.04403 2.96218 2.9047 3.10116C2.78086 3.2247 2.6725 3.34824 2.57961 3.45634H2.56413V2.57612H0.644531V11.8725H2.71894V8.58327H2.7499C2.99759 8.90756 3.3072 9.1392 3.67874 9.26274C4.05027 9.40172 4.45277 9.46349 4.88623 9.46349C5.36613 9.46349 5.79959 9.37083 6.17112 9.17008C6.55814 8.96933 6.88323 8.70681 7.1464 8.36707C7.40958 8.04278 7.61082 7.65671 7.75015 7.22432C7.88947 6.80737 7.96688 6.35954 7.96688 5.88082C7.96688 5.37122 7.88947 4.90794 7.73467 4.49099ZM5.44353 7.16255C5.16488 7.48685 4.7469 7.64127 4.22056 7.64127C3.69422 7.64127 3.29172 7.48685 2.99759 7.16255C2.70346 6.8537 2.56413 6.4522 2.56413 5.94259C2.56413 5.43299 2.70346 5.01604 2.99759 4.70719C3.29172 4.39834 3.69422 4.24391 4.22056 4.24391C4.7469 4.24391 5.16488 4.39834 5.44353 4.70719C5.73767 5.01604 5.89247 5.43299 5.89247 5.94259C5.89247 6.4522 5.73767 6.8537 5.44353 7.16255Z" fill="#FFFFFF"></path><path d="M8.92773 5.92715C8.92773 5.38666 9.02062 4.90794 9.22186 4.47555C9.42311 4.04316 9.68628 3.67254 10.0269 3.36369C10.3674 3.05484 10.7699 2.8232 11.2189 2.65333C11.6833 2.48346 12.1632 2.40625 12.6895 2.40625C13.2159 2.40625 13.6958 2.48346 14.1602 2.65333C14.6246 2.8232 15.0116 3.05484 15.3522 3.36369C15.6928 3.67254 15.9559 4.04316 16.1572 4.47555C16.3584 4.90794 16.4513 5.38666 16.4513 5.92715C16.4513 6.46764 16.3584 6.94636 16.1572 7.37875C15.9559 7.81114 15.6928 8.18176 15.3522 8.49061C15.0116 8.79946 14.6246 9.0311 14.1602 9.20097C13.6958 9.37083 13.2159 9.44805 12.6895 9.44805C12.1632 9.44805 11.6833 9.37083 11.2189 9.20097C10.7544 9.0311 10.3674 8.79946 10.0269 8.49061C9.68628 8.18176 9.42311 7.81114 9.22186 7.37875C9.02062 6.94636 8.92773 6.46764 8.92773 5.92715ZM11.0021 5.92715C11.0021 6.43675 11.1415 6.83826 11.4356 7.16255C11.7297 7.48684 12.1322 7.62583 12.6586 7.62583C13.1849 7.62583 13.5874 7.4714 13.8815 7.16255C14.1757 6.8537 14.315 6.43675 14.315 5.92715C14.315 5.41754 14.1757 5.01604 13.8815 4.69175C13.5874 4.38289 13.1849 4.22847 12.6586 4.22847C12.1322 4.22847 11.7297 4.38289 11.4356 4.69175C11.1415 5.0006 11.0021 5.41754 11.0021 5.92715Z" fill="#FFFFFF"></path><path d="M16.8377 2.57812H19.0515L20.4293 6.79394H20.4602L21.6058 2.57812H23.8814L25.1354 6.79394H25.1663L26.4358 2.57812H28.5411L26.1416 9.29563H24.0827L22.6739 4.83274H22.643L21.3891 9.29563H19.2992L16.8223 2.57812H16.8377Z" fill="#FFFFFF"></path><path d="M35.5848 8.13952C35.2598 8.57191 34.8263 8.8962 34.3154 9.12784C33.8046 9.35948 33.2782 9.46758 32.7364 9.46758C32.1946 9.46758 31.7302 9.39036 31.2657 9.2205C30.8013 9.05063 30.4143 8.81899 30.0737 8.51014C29.7332 8.20129 29.47 7.83067 29.2687 7.39828C29.0675 6.96589 28.9746 6.48717 28.9746 5.94668C28.9746 5.40619 29.0675 4.92747 29.2687 4.49508C29.47 4.06269 29.7332 3.69207 30.0737 3.38322C30.4143 3.07437 30.8168 2.84273 31.2657 2.67286C31.7302 2.50299 32.2101 2.42578 32.7364 2.42578C33.2163 2.42578 33.6498 2.50299 34.0523 2.67286C34.4548 2.84273 34.7799 3.07437 35.0585 3.38322C35.3372 3.69207 35.5384 4.06269 35.6932 4.49508C35.848 4.92747 35.9099 5.40619 35.9099 5.94668V6.59527H31.08C31.1574 6.99677 31.3431 7.30562 31.6218 7.53726C31.9005 7.7689 32.241 7.89244 32.6435 7.89244C32.9841 7.89244 33.2782 7.81523 33.5104 7.6608C33.7426 7.50638 33.9594 7.30562 34.1297 7.07398L35.5848 8.13952ZM33.82 5.17455C33.82 4.81937 33.7117 4.52597 33.4795 4.27889C33.2473 4.0318 32.9222 3.90826 32.5506 3.90826C32.3184 3.90826 32.1172 3.93915 31.9469 4.01636C31.7766 4.09357 31.6218 4.18623 31.498 4.29433C31.3741 4.41787 31.2812 4.54141 31.2038 4.69583C31.1264 4.85026 31.0955 5.00468 31.08 5.17455H33.82Z" fill="#FFFFFF"></path><path d="M37.1641 2.58021H39.2385V3.66118H39.2694C39.4862 3.24424 39.7493 2.93538 40.0589 2.73463C40.3686 2.53388 40.7401 2.42578 41.2045 2.42578C41.3284 2.42578 41.4522 2.42578 41.5606 2.42578C41.6689 2.42578 41.7928 2.45667 41.9011 2.48755V4.38698C41.7463 4.34066 41.607 4.30977 41.4677 4.27889C41.3284 4.248 41.1735 4.248 41.0187 4.248C40.6162 4.248 40.3066 4.30977 40.0744 4.41787C39.8422 4.52597 39.6719 4.68039 39.5481 4.88115C39.4242 5.0819 39.3468 5.31354 39.3004 5.5915C39.2694 5.86947 39.2385 6.17832 39.2385 6.50261V9.31315H37.1641V2.58021Z" fill="#FFFFFF"></path><path d="M48.9442 8.13952C48.6191 8.57191 48.1857 8.8962 47.6748 9.12784C47.1639 9.35948 46.6376 9.46758 46.0958 9.46758C45.554 9.46758 45.0895 9.39036 44.6251 9.2205C44.1607 9.05063 43.7737 8.81899 43.4331 8.51014C43.0925 8.20129 42.8294 7.83067 42.6281 7.39828C42.4269 6.96589 42.334 6.48717 42.334 5.94668C42.334 5.40619 42.4269 4.92747 42.6281 4.49508C42.8294 4.06269 43.0925 3.69207 43.4331 3.38322C43.7737 3.07437 44.1762 2.84273 44.6251 2.67286C45.0895 2.50299 45.5694 2.42578 46.0958 2.42578C46.5757 2.42578 47.0091 2.50299 47.4116 2.67286C47.8141 2.84273 48.1392 3.07437 48.4179 3.38322C48.6965 3.69207 48.8978 4.06269 49.0526 4.49508C49.2074 4.92747 49.2693 5.40619 49.2693 5.94668V6.59527H44.4394C44.5168 6.99677 44.7025 7.30562 44.9812 7.53726C45.2598 7.7689 45.6004 7.89244 46.0029 7.89244C46.3435 7.89244 46.6376 7.81523 46.8698 7.6608C47.102 7.50638 47.3188 7.30562 47.489 7.07398L48.9442 8.13952ZM47.1794 5.17455C47.1794 4.81937 47.0711 4.52597 46.8389 4.27889C46.6066 4.0318 46.2816 3.90826 45.91 3.90826C45.6778 3.90826 45.4766 3.93915 45.3063 4.01636C45.136 4.09357 44.9812 4.18623 44.8573 4.29433C44.7335 4.41787 44.6406 4.54141 44.5632 4.69583C44.4858 4.85026 44.4548 5.00468 44.4394 5.17455H47.1794Z" fill="#FFFFFF"></path><path d="M57.5977 9.29641H55.6781V8.41618H55.6472C55.5698 8.53972 55.4614 8.66326 55.3221 8.7868C55.1828 8.91035 55.0279 9.01844 54.8577 9.12654C54.6719 9.23464 54.4861 9.31185 54.2539 9.37362C54.0372 9.43539 53.805 9.46628 53.5882 9.46628C53.0929 9.46628 52.6285 9.37362 52.226 9.20375C51.8235 9.03389 51.4674 8.7868 51.1733 8.47795C50.8791 8.1691 50.6624 7.79848 50.5076 7.38153C50.3528 6.94914 50.2754 6.48587 50.2754 5.97626C50.2754 5.51299 50.3528 5.04971 50.4921 4.63276C50.6314 4.20037 50.8327 3.82975 51.0959 3.49001C51.359 3.16572 51.6841 2.88775 52.0557 2.70244C52.4272 2.50169 52.8607 2.40904 53.3406 2.40904C53.774 2.40904 54.1765 2.47081 54.5481 2.60979C54.9196 2.74877 55.2292 2.96497 55.4769 3.28926H55.5078V0H57.5823V9.29641H57.5977ZM55.6781 5.92993C55.6781 5.42033 55.5388 5.01883 55.2447 4.69453C54.9505 4.38568 54.5481 4.23126 54.0217 4.23126C53.4954 4.23126 53.0929 4.38568 52.7987 4.69453C52.5046 5.00338 52.3653 5.42033 52.3653 5.92993C52.3653 6.43954 52.5046 6.84104 52.7987 7.16534C53.0929 7.48963 53.4954 7.62861 54.0217 7.62861C54.5481 7.62861 54.9505 7.47419 55.2447 7.16534C55.5388 6.85649 55.6781 6.43954 55.6781 5.92993Z" fill="#FFFFFF"></path><path d="M63.5585 0H65.6329V3.28926H65.6638C65.9115 2.96497 66.2056 2.73333 66.5927 2.60979C66.9642 2.47081 67.3667 2.40904 67.8001 2.40904C68.28 2.40904 68.7135 2.50169 69.085 2.70244C69.4566 2.9032 69.7817 3.16572 70.0448 3.49001C70.308 3.82975 70.5093 4.20037 70.6486 4.63276C70.7879 5.06515 70.8653 5.51299 70.8653 5.97626C70.8653 6.48587 70.7879 6.94914 70.6331 7.38153C70.4783 7.79848 70.2461 8.1691 69.9674 8.47795C69.6888 8.7868 69.3327 9.03389 68.9148 9.20375C68.5123 9.37362 68.0478 9.46628 67.5525 9.46628C67.3048 9.46628 67.088 9.43539 66.8713 9.37362C66.6546 9.31185 66.4688 9.2192 66.283 9.12654C66.0973 9.01844 65.9425 8.91035 65.8186 8.7868C65.6793 8.66326 65.5709 8.53972 65.4935 8.41618H65.4626V9.29641H63.543V0H63.5585ZM65.478 5.92993C65.478 6.43954 65.6174 6.84104 65.9115 7.16534C66.2056 7.48963 66.6081 7.62861 67.1345 7.62861C67.6608 7.62861 68.0633 7.47419 68.3574 7.16534C68.6516 6.85649 68.7909 6.43954 68.7909 5.92993C68.7909 5.42033 68.6516 5.01883 68.3574 4.69453C68.0633 4.38568 67.6608 4.23126 67.1345 4.23126C66.6081 4.23126 66.2056 4.38568 65.9115 4.69453C65.6174 5.00338 65.478 5.42033 65.478 5.92993Z" fill="#FFFFFF"></path><path d="M76.902 2.57812L75.4314 7.02558H75.4004L73.6666 2.57812H71.4219L74.3632 9.3574L73.9607 10.3766L73.7285 10.9634L73.4034 11.7819L73.3724 11.8745H75.4159L79.0384 2.57812H76.902Z" fill="#FFFFFF"></path></svg>