<svg width="79" height="54" viewBox="0 0 79 54" fill="none" xmlns="http://www.w3.org/2000/svg"><path opacity="0.2" d="M3.20276e-06 17.3647C3.41257e-06 14.9647 0.470882 12.7059 1.41265 10.5882C2.28198 8.54117 3.51353 6.70587 5.10729 5.08235C6.70105 3.5294 8.5846 2.29411 10.7579 1.37646C12.8588 0.458815 15.1408 -9.39745e-06 17.6039 -9.18212e-06C20.7189 -8.90979e-06 23.4718 0.670581 25.8625 2.01176C28.1807 3.35294 30.1729 5.08235 31.8391 7.19999C33.4328 9.38823 34.6644 11.8588 35.5337 14.6118C36.3306 17.4353 36.729 20.2941 36.729 23.1882C36.729 26.3647 36.2944 29.5059 35.425 32.6118C34.5557 35.7176 33.3242 38.6118 31.7304 41.2941C30.0642 43.9765 28.0358 46.4118 25.6451 48.6C23.2545 50.7882 20.574 52.5882 17.6039 54L8.04126 49.0235C9.92481 47.1882 11.5548 45.0706 12.9312 42.6706C14.2352 40.2706 14.8872 37.7647 14.8872 35.1529L14.8872 34.2C12.7863 33.8471 10.8304 33.1765 9.01926 32.1882C7.20816 31.2 5.65062 29.9647 4.34663 28.4823C2.97019 27 1.91976 25.3059 1.19532 23.4C0.39844 21.4941 3.01763e-06 19.4823 3.20276e-06 17.3647ZM42.271 17.3647C42.271 14.9647 42.7419 12.7059 43.6836 10.5882C44.553 8.54117 45.7845 6.70588 47.3783 5.08235C48.972 3.52941 50.8556 2.29411 53.0289 1.37647C55.1298 0.458818 57.4117 -5.702e-06 59.8748 -5.48667e-06C62.9899 -5.21434e-06 65.7428 0.670584 68.1334 2.01176C70.4516 3.35294 72.4438 5.08235 74.11 7.2C75.7038 9.38823 76.9354 11.8588 77.8047 14.6118C78.6016 17.4353 79 20.2941 79 23.1882C79 26.3647 78.5653 29.5059 77.696 32.6118C76.8267 35.7176 75.5951 38.6118 74.0014 41.2941C72.3352 43.9765 70.3067 46.4118 67.9161 48.6C65.5254 50.7882 62.845 52.5882 59.8748 54L50.3122 49.0235C52.1958 47.1882 53.8258 45.0706 55.2022 42.6706C56.5062 40.2706 57.1582 37.7647 57.1582 35.1529L57.1582 34.2C55.0573 33.8471 53.1013 33.1765 51.2902 32.1882C49.4791 31.2 47.9216 29.9647 46.6176 28.4823C45.2412 27 44.1907 25.3059 43.4663 23.4C42.6694 21.4941 42.271 19.4823 42.271 17.3647Z" fill="white"></path></svg>