<svg width="20" height="20" viewBox="0 0 20 20" fill="none" xmlns="http://www.w3.org/2000/svg"><circle cx="10" cy="10" r="10" fill="white"></circle><path d="M12.8229 3H10.4553V12.5362C10.4553 13.6725 9.5447 14.6058 8.41147 14.6058C7.27825 14.6058 6.36762 13.6725 6.36762 12.5362C6.36762 11.4203 7.25801 10.5072 8.35077 10.4667V8.07247C5.94266 8.11303 4 10.0812 4 12.5362C4 15.0116 5.98314 17 8.43172 17C10.8803 17 12.8634 14.9913 12.8634 12.5362V7.64637C13.7538 8.29566 14.8465 8.68116 16 8.70146V6.30725C14.2192 6.24638 12.8229 4.78551 12.8229 3Z" fill="black"></path></svg>