<svg width="466" height="466" viewBox="0 0 466 466" fill="none" xmlns="http://www.w3.org/2000/svg"><path d="M117.677 223.171C116.556 158.386 176.403 101.198 242.302 101.198C308.201 101.198 334.426 150.121 334.426 150.121L118.125 237.691C118.125 237.691 117.901 230.989 117.901 223.171M153.092 327.272L466 200.608C453.672 83.1026 357.289 0 238.043 0C106.469 0 0 104.325 0 233C0 361.675 108.263 466 244.095 466C333.754 466 402.118 418.864 437.758 377.089L382.618 322.134L368.272 321.017C239.388 408.141 158.471 337.995 153.316 327.272" fill="#FFFFFF"></path></svg>