<svg width="32" height="32" viewBox="0 0 32 32" fill="none" xmlns="http://www.w3.org/2000/svg"><path opacity="0.2" d="M8.08081 15.325C8.00385 10.8763 12.1135 6.94918 16.6388 6.94918C21.164 6.94918 22.9649 10.3087 22.9649 10.3087L8.11159 16.3221C8.11159 16.3221 8.0962 15.8619 8.0962 15.325M10.5127 22.4736L32 13.7756C31.1534 5.70661 24.5349 0 16.3463 0C7.31121 0 0 7.16395 0 16C0 24.836 7.43434 32 16.7619 32C22.9187 32 27.6133 28.7632 30.0606 25.8945L26.2742 22.1208L25.2891 22.0441C16.4387 28.0268 10.8822 23.21 10.5281 22.4736" fill="#FFFFFF"></path></svg>