<svg width="20" height="20" viewBox="0 0 20 20" fill="none" xmlns="http://www.w3.org/2000/svg"><circle cx="10" cy="10" r="10" fill="white"></circle><path d="M20 10.0007C20 4.47748 15.5229 0 10 0C4.47715 0 0 4.47748 0 10.0007C0 14.9923 3.65684 19.1297 8.4375 19.88V12.8916H5.89844V10.0007H8.4375V7.79746C8.4375 5.29102 9.93047 3.90654 12.2146 3.90654C13.3084 3.90654 14.4531 4.10187 14.4531 4.10187V6.56299H13.1922C11.95 6.56299 11.5625 7.33395 11.5625 8.12561V10.0007H14.3359L13.8926 12.8916H11.5625V19.88C16.3432 19.1297 20 14.9923 20 10.0007Z" fill="#1877F2"></path></svg>