<svg width="18" height="18" viewBox="0 0 18 18" fill="none" xmlns="http://www.w3.org/2000/svg"><path d="M9.00528 1.6207C11.4114 1.6207 11.6963 1.63125 12.6426 1.67344C13.522 1.71211 13.9969 1.85977 14.3135 1.98281C14.7321 2.14453 15.0346 2.34141 15.3477 2.6543C15.6643 2.9707 15.8577 3.26953 16.0195 3.68789C16.1427 4.0043 16.2904 4.48242 16.3291 5.35781C16.3713 6.30703 16.3819 6.5918 16.3819 8.99297C16.3819 11.3977 16.3713 11.6824 16.3291 12.6281C16.2904 13.507 16.1427 13.9816 16.0195 14.298C15.8577 14.7164 15.6607 15.0188 15.3477 15.3316C15.0311 15.648 14.7321 15.8414 14.3135 16.0031C13.9969 16.1262 13.5185 16.2738 12.6426 16.3125C11.6928 16.3547 11.4079 16.3652 9.00528 16.3652C6.59918 16.3652 6.31425 16.3547 5.36799 16.3125C4.48857 16.2738 4.01368 16.1262 3.69709 16.0031C3.27848 15.8414 2.97596 15.6445 2.66289 15.3316C2.3463 15.0152 2.15282 14.7164 1.99101 14.298C1.86789 13.9816 1.72015 13.5035 1.68145 12.6281C1.63924 11.6789 1.62869 11.3941 1.62869 8.99297C1.62869 6.58828 1.63924 6.30352 1.68145 5.35781C1.72015 4.47891 1.86789 4.0043 1.99101 3.68789C2.15282 3.26953 2.34981 2.96719 2.66289 2.6543C2.97948 2.33789 3.27848 2.14453 3.69709 1.98281C4.01368 1.85977 4.49209 1.71211 5.36799 1.67344C6.31425 1.63125 6.59918 1.6207 9.00528 1.6207ZM9.00528 0C6.56048 0 6.25445 0.0105469 5.29412 0.0527344C4.33731 0.0949219 3.6795 0.249609 3.10963 0.471094C2.51515 0.703125 2.01212 1.00898 1.51261 1.51172C1.00958 2.01094 0.703537 2.51367 0.47137 3.1043C0.249756 3.67734 0.0949775 4.33125 0.0527653 5.2875C0.0105531 6.25078 0 6.55664 0 9C0 11.4434 0.0105531 11.7492 0.0527653 12.709C0.0949775 13.6652 0.249756 14.3227 0.47137 14.8922C0.703537 15.4863 1.00958 15.9891 1.51261 16.4883C2.01212 16.9875 2.51515 17.2969 3.10612 17.5254C3.6795 17.7469 4.33379 17.9016 5.2906 17.9438C6.25093 17.9859 6.55697 17.9965 9.00176 17.9965C11.4466 17.9965 11.7526 17.9859 12.7129 17.9438C13.6697 17.9016 14.3275 17.7469 14.8974 17.5254C15.4884 17.2969 15.9914 16.9875 16.4909 16.4883C16.9904 15.9891 17.3 15.4863 17.5286 14.8957C17.7502 14.3227 17.905 13.6688 17.9472 12.7125C17.9894 11.7527 18 11.4469 18 9.00352C18 6.56016 17.9894 6.2543 17.9472 5.29453C17.905 4.33828 17.7502 3.68086 17.5286 3.11133C17.307 2.51367 17.001 2.01094 16.4979 1.51172C15.9984 1.0125 15.4954 0.703125 14.9044 0.474609C14.3311 0.253125 13.6768 0.0984375 12.72 0.05625C11.7561 0.0105469 11.4501 0 9.00528 0Z" fill="url(#paint0_linear_225_408)"></path><path d="M9.00527 4.37695C6.45143 4.37695 4.37952 6.44766 4.37952 9C4.37952 11.5523 6.45143 13.623 9.00527 13.623C11.5591 13.623 13.631 11.5523 13.631 9C13.631 6.44766 11.5591 4.37695 9.00527 4.37695ZM9.00527 11.9988C7.34844 11.9988 6.00469 10.6559 6.00469 9C6.00469 7.34414 7.34844 6.00117 9.00527 6.00117C10.6621 6.00117 12.0059 7.34414 12.0059 9C12.0059 10.6559 10.6621 11.9988 9.00527 11.9988Z" fill="url(#paint1_linear_225_408)"></path><path d="M14.8939 4.19404C14.8939 4.7917 14.4084 5.27334 13.814 5.27334C13.2159 5.27334 12.734 4.78819 12.734 4.19404C12.734 3.59639 13.2195 3.11475 13.814 3.11475C14.4084 3.11475 14.8939 3.5999 14.8939 4.19404Z" fill="url(#paint2_linear_225_408)"></path><defs><linearGradient id="paint0_linear_225_408" x1="17" y1="1" x2="1" y2="17" gradientUnits="userSpaceOnUse"><stop stop-color="#9E04D0"></stop><stop offset="0.503125" stop-color="#F71F87"></stop><stop offset="1" stop-color="#FED818"></stop></linearGradient><linearGradient id="paint1_linear_225_408" x1="17" y1="1" x2="1.00622" y2="17.0062" gradientUnits="userSpaceOnUse"><stop stop-color="#9E04D0"></stop><stop offset="0.503125" stop-color="#F71F87"></stop><stop offset="1" stop-color="#FED818"></stop></linearGradient><linearGradient id="paint2_linear_225_408" x1="17.5" y1="1" x2="0.506208" y2="17.0066" gradientUnits="userSpaceOnUse"><stop stop-color="#9E04D0"></stop><stop offset="0.503125" stop-color="#F71F87"></stop><stop offset="1" stop-color="#FED818"></stop></linearGradient></defs></svg>