<svg width="28" height="28" viewBox="0 0 28 28" fill="none" xmlns="http://www.w3.org/2000/svg"><path fill-rule="evenodd" clip-rule="evenodd" d="M14 14C17.866 14 21 10.866 21 7C21 3.13401 17.866 0 14 0C10.134 0 7 3.13401 7 7C7 10.866 10.134 14 14 14ZM0.465271 21.2884C2.26707 18.5047 4.9446 16.3153 8.11987 15.0894C9.77019 16.291 11.8023 17 14 17C16.1977 17 18.2298 16.291 19.8801 15.0894C23.0554 16.3153 25.7329 18.5047 27.5347 21.2884C24.4294 25.3675 19.5222 28.0005 14 28.0005C8.47781 28.0005 3.57059 25.3675 0.465271 21.2884Z" fill="#333334"></path></svg>